# xmcd CD database file
#
# Track frame offsets:
#	150
#	16177
#	33357
#	50687
#	62945
#	74152
#	90267
#	107450
#	120302
#	135377
#	153910
#	166727
#	184937
#	196422
#	208145
#	226105
#	242397
#	257282
#
# Disc length: 3632 seconds
#
# Revision: 2
# Processed by: cddbd v1.5.2PL0 Copyright (c) Steve Scherf et al.
# Submitted via: CDex 1.70beta3
#
DISCID=e20e2e12
DTITLE=Various Artist - ヒット・カーニバル1
DYEAR=1900
DGENRE=Pop
TTITLE0=西田佐知子/アカシアの雨がやむとき
TTITLE1=西田佐知子/コーヒー・ルンバ
TTITLE2=倍賞千恵子/下町の太陽
TTITLE3=ザ・ピーナッツ/恋のバカンス
TTITLE4=青山ミチ/恋はスバヤク
TTITLE5=西田佐知子/赤坂の夜は更けて
TTITLE6=園まり/逢いたくて逢いたくて
TTITLE7=日野てる子/夏の日の思い出
TTITLE8=加山雄三/君といつまでも
TTITLE9=園まり/夢は夜ひらく
TTITLE10=菅原洋一/知りたくないの
TTITLE11=伊藤ゆかり/小指の思い出
TTITLE12=ザ・ピーナッツ/恋のフーガ
TTITLE13=ザ・タイガース/モナリザの微笑
TTITLE14=ザ・タイガース/花の首飾り
TTITLE15=ロス・インディオス/コモエスタ赤坂
TTITLE16=ザ・キング・トーンズ/グッドナイトベイビー
TTITLE17=ピンキーとキラーズ/恋の季節
EXTD=
EXTT0=
EXTT1=
EXTT2=
EXTT3=
EXTT4=
EXTT5=
EXTT6=
EXTT7=
EXTT8=
EXTT9=
EXTT10=
EXTT11=
EXTT12=
EXTT13=
EXTT14=
EXTT15=
EXTT16=
EXTT17=
PLAYORDER=
